<svg width="46" height="38" viewBox="0 0 46 38" fill="none" xmlns="http://www.w3.org/2000/svg">
<path d="M22.9654 17.0807L38.3158 1.73031C39.3768 0.669325 41.0924 0.669325 42.1421 1.73031L44.693 4.28118C45.754 5.34216 45.754 7.05779 44.693 8.10748L33.8236 18.9995L44.7043 29.8802C45.7652 30.9412 45.7652 32.6568 44.7043 33.7065L42.1534 36.2686C41.0924 37.3296 39.3768 37.3296 38.3271 36.2686L22.9767 20.9183C21.9045 19.8573 21.9045 18.1417 22.9654 17.0807ZM1.29433 20.9183L16.6447 36.2686C17.7057 37.3296 19.4213 37.3296 20.471 36.2686L23.0219 33.7178C24.0829 32.6568 24.0829 30.9412 23.0219 29.8915L12.1525 18.9995L23.0332 8.11877C24.0941 7.05779 24.0941 5.34216 23.0332 4.29246L20.4823 1.73031C19.4213 0.669325 17.7057 0.669325 16.656 1.73031L1.30562 17.0807C0.233349 18.1417 0.23335 19.8573 1.29433 20.9183Z" fill="white"/>
</svg>
