<svg width="20" height="20" viewBox="0 0 20 20" fill="none" xmlns="http://www.w3.org/2000/svg">
<path d="M18.4416 8.50352L19.4326 9.49448C19.8522 9.91407 19.8522 10.5926 19.4326 11.0077L10.7594 19.6853C10.3398 20.1049 9.66134 20.1049 9.24621 19.6853L0.568603 11.0077C0.149007 10.5881 0.149007 9.90961 0.568603 9.49448L1.55956 8.50352C1.98362 8.07946 2.67551 8.08838 3.09064 8.52137L8.21507 13.9002V1.07131C8.21507 0.477625 8.6927 0 9.28638 0H10.7148C11.3085 0 11.7861 0.477625 11.7861 1.07131V13.9002L16.9105 8.52137C17.3257 8.08392 18.0175 8.07499 18.4416 8.50352Z" fill="black"/>
</svg>
