<svg width="38" height="58" viewBox="0 0 38 58" fill="none" xmlns="http://www.w3.org/2000/svg">
<path d="M34.5816 24.8019C30.9562 20.9391 25.1609 19.8892 20.4145 22.2078H20.4044C22.3623 20.1841 23.6921 17.8725 24.3621 15.3148C25.9815 9.12798 24.3132 5.1736 22.9174 2.73703C21.9625 1.07023 21.3717 0.62482 21.3469 0.606196C21.2615 0.543342 21.1466 0.55343 21.0713 0.623268L21.0705 0.622492L12.2429 8.90062L4.65902 16.0132C2.29745 18.2279 0.939658 21.2286 0.836407 24.4636C0.733156 27.6987 1.89609 30.7801 4.11171 33.1406C6.48571 35.6695 9.68416 36.9631 12.9175 36.9631C14.759 36.9631 16.6105 36.5417 18.3277 35.692C16.3481 37.7251 15.0043 40.0522 14.3305 42.6269C12.5014 49.6146 14.9663 53.8235 15.7767 55.2063C16.5787 56.5759 17.1664 57.1695 17.3271 57.3193C17.369 57.3581 17.4218 57.3767 17.4746 57.3767C17.5281 57.3767 17.5801 57.3565 17.6221 57.3177L17.6228 57.3185L34.0351 41.9293C38.9096 37.358 39.1549 29.6751 34.5816 24.8019ZM17.48 56.8607C17.4668 56.8467 17.4536 56.8327 17.4396 56.8172L17.4746 56.797C17.4846 56.8149 17.4901 56.8319 17.4932 56.8475L17.48 56.8607ZM26.5079 27.1415C26.261 25.8666 25.3053 24.892 23.6665 24.2463C23.3296 24.1136 23.0555 24.0104 22.8172 23.9266C22.7435 23.8552 22.6534 23.7924 22.5494 23.7358C23.2442 23.8809 24.0415 24.1959 25.0352 24.7119C26.5474 25.4972 27.4169 26.5518 27.6203 27.8461C27.9565 29.9862 26.4985 32.7705 23.4033 35.8992C22.8149 36.4944 22.2187 37.1221 21.6325 37.7654C19.9549 39.606 18.6453 41.6081 17.7408 43.7172C15.9957 47.8244 15.46 51.0152 15.5601 53.1833C15.0726 51.1976 14.87 47.9315 16.4444 43.3121C17.1726 41.1898 18.3479 39.2049 19.9386 37.4116C20.4789 36.8024 21.0651 36.1979 21.6799 35.6167C25.2572 32.235 26.9263 29.3042 26.5079 27.1415ZM17.0841 55.9008C17.3022 54.7244 19.1763 51.2806 23.2162 45.6067C24.9047 43.257 26.7462 41.2573 27.9937 39.9932C28.607 39.3717 29.1986 38.7075 29.8026 37.9625C31.7403 35.5717 32.7984 33.0754 32.8621 30.7413C32.928 28.314 31.9095 26.1793 29.9159 24.5668C28.253 23.2221 26.4721 22.4205 24.7114 22.1853C26.9721 22.287 29.249 23.2345 31.1836 24.9672C34.9442 28.335 35.0629 33.5635 31.488 38.2869C30.9275 39.0272 30.3274 39.7147 29.704 40.33C28.4098 41.6073 26.469 43.6109 24.574 45.9023C19.361 52.2475 17.6236 54.8113 17.0841 55.9008ZM28.0489 27.7786C27.8229 26.3407 26.8766 25.1798 25.2355 24.3278C24.1548 23.7668 23.3133 23.4385 22.5602 23.2942C23.7643 23.3602 25.0864 23.849 26.5692 24.7748C28.1079 25.7354 28.9882 26.9723 29.1862 28.4529C29.4905 30.7296 28.1901 33.5107 25.4249 36.4959L25.0779 36.8715C24.6416 37.3433 24.1634 37.8601 23.6518 38.4072C21.9237 40.2524 20.51 42.2226 19.4495 44.2627C17.4435 48.162 16.2363 51.7043 16.0686 53.9779C15.7651 51.8261 16.2689 48.2931 18.1406 43.8863C19.0257 41.823 20.3089 39.8613 21.9539 38.0564C22.5362 37.417 23.1277 36.7931 23.7123 36.2026C26.9077 32.973 28.4067 30.06 28.0489 27.7786ZM22.6488 24.4706C22.7116 24.7856 22.4904 25.4313 21.079 26.7171C20.2398 27.4806 19.4472 28.0347 18.5839 28.4599C15.1999 30.1228 10.9146 29.135 8.16334 26.0582C7.49027 25.3071 6.93598 24.4582 6.51521 23.5348C5.28474 20.8344 5.71249 17.5559 7.58809 15.058C6.29939 17.3735 6.14801 20.0654 7.23564 22.3219C7.64321 23.1685 8.16101 23.9515 8.77276 24.6475C10.6359 26.7729 13.2025 27.9501 15.696 27.9501C16.5996 27.9501 17.494 27.7957 18.3417 27.4752C19.1351 27.1741 19.8796 26.7605 20.753 26.1358C21.9229 25.2986 22.4749 24.8043 22.6332 24.4194C22.6394 24.4357 22.6449 24.4527 22.6488 24.4706ZM23.0656 24.8004C23.2193 25.4615 22.731 26.4672 21.662 27.649C20.8415 28.5561 19.9658 29.2754 18.9853 29.8481C15.2535 32.0247 10.3099 31.1448 7.22943 27.7545C6.46941 26.9196 5.85611 25.9706 5.40507 24.9339C4.09774 21.9285 4.58682 18.3994 6.62467 15.73C5.19313 18.2038 4.97498 21.1952 6.12161 23.7132C6.56024 24.677 7.1386 25.5624 7.84117 26.3461C9.78275 28.5173 12.458 29.6921 15.085 29.6921C16.3559 29.6921 17.6151 29.4175 18.7749 28.8471C19.6754 28.4033 20.5007 27.8275 21.3701 27.036C22.3972 26.1017 22.9476 25.3777 23.0656 24.8004ZM21.926 23.6481L21.9206 23.6628L21.9112 23.6473C21.9167 23.6473 21.9213 23.6481 21.926 23.6481ZM22.2233 24.1253C22.2404 24.1431 22.2505 24.1594 22.252 24.1718C22.2823 24.3883 21.6931 24.93 20.5014 25.7828C19.6591 26.3849 18.9457 26.7822 18.1888 27.0693C15.172 28.21 11.5186 27.1213 9.09803 24.3612C8.51191 23.6938 8.01662 22.9443 7.62535 22.1334C6.44922 19.6937 6.81254 16.7093 8.56936 14.3309C7.41574 16.5215 7.32181 18.9387 8.35044 20.9298C8.72695 21.6585 9.18188 22.3374 9.70434 22.9466C11.5101 25.0603 14.0075 26.2732 16.3869 26.2732C16.8993 26.2732 17.407 26.2165 17.9008 26.1009C18.6095 25.9333 19.2974 25.6656 20.1304 25.2334C20.6055 24.9866 20.9913 24.7965 21.3011 24.6444C21.8181 24.3907 22.0937 24.2541 22.2233 24.1253ZM21.711 23.953C21.5611 24.0345 21.3453 24.1408 21.1101 24.2564C20.798 24.4101 20.4098 24.601 19.9301 24.8501C19.1305 25.266 18.4737 25.522 17.8014 25.6811C15.1728 26.298 12.1241 25.1147 10.0335 22.6665C9.53277 22.0821 9.09648 21.4319 8.73549 20.7327C7.66882 18.6671 7.89396 16.1009 9.33792 13.8692L9.35966 13.8257C9.41555 13.6737 9.53666 13.4641 9.69813 13.222C9.69348 13.2344 9.68726 13.2484 9.68261 13.2608C8.53675 15.4646 8.45757 17.753 9.46679 19.5424C9.80992 20.1515 10.2035 20.7257 10.6352 21.248C12.4502 23.4479 14.8684 24.7344 17.1586 24.7344C17.2549 24.7344 17.3511 24.7321 17.4474 24.7274C18.1003 24.6956 18.7718 24.566 19.4992 24.3317C20.8679 23.8894 21.5433 23.9321 21.711 23.953ZM5.00837 25.1061C5.47804 26.1863 6.11695 27.1749 6.9088 28.0455C8.93889 30.2803 11.7468 31.4691 14.5245 31.4691C16.1478 31.4691 17.7618 31.0625 19.2027 30.2221C20.222 29.6262 21.131 28.8797 21.9819 27.94C22.9243 26.8979 23.4414 25.9737 23.5167 25.2295C23.6851 26.0823 23.2426 27.2858 22.2474 28.5802C21.4501 29.6169 20.4882 30.5108 19.389 31.2363C15.2589 33.96 9.75248 33.2089 6.29473 29.4516C5.44777 28.5321 4.77469 27.4829 4.29337 26.3329C2.91152 23.0304 3.45572 19.249 5.64728 16.4012C4.06048 19.0512 3.78566 22.2963 5.00837 25.1061ZM19.833 44.4613C20.8756 42.457 22.266 40.5194 23.9669 38.7028C24.4793 38.155 24.9583 37.6374 25.3954 37.1656L25.7424 36.7908C28.5977 33.7078 29.9369 30.8049 29.6147 28.3963C29.3989 26.7822 28.4518 25.4406 26.7982 24.4085C25.5041 23.6007 24.3194 23.1119 23.2186 22.9326C24.7844 23.0017 26.4403 23.6419 28.1055 24.8392C29.6807 25.9721 30.5797 27.3991 30.7769 29.0815C31.0587 31.4839 29.9066 34.2549 27.4456 37.0934C26.8161 37.8197 26.2354 38.4591 25.6686 39.0489C24.4459 40.3207 22.6705 42.3514 21.1567 44.809C19.1041 48.1752 16.9622 52.2894 16.4832 54.6623C16.425 52.8023 17.3643 49.2607 19.833 44.4613ZM16.817 55.332C16.9234 53.801 18.3207 50.2889 21.5254 45.034C23.0191 42.6098 24.7728 40.6039 25.9807 39.3476C26.5529 38.7525 27.1382 38.1076 27.7725 37.3759C30.3149 34.4427 31.5019 31.5568 31.2062 29.0302C30.9942 27.2222 30.0362 25.6935 28.3578 24.4869C26.8215 23.3819 25.2867 22.734 23.8109 22.5485C25.7634 22.5966 27.7787 23.3935 29.6442 24.902C31.5291 26.4268 32.4925 28.4413 32.4296 30.7289C32.3683 32.9668 31.3443 35.3739 29.4664 37.6894C28.871 38.4234 28.2887 39.0776 27.6863 39.6891C26.4279 40.964 24.5701 42.9808 22.8653 45.3545C21.1504 47.7623 17.6228 52.8838 16.817 55.332ZM18.8611 23.4215C19.8159 23.3059 20.4587 23.4199 20.8609 23.5588C20.4828 23.6124 19.9898 23.7179 19.3657 23.9181C18.6748 24.1408 18.0397 24.2634 17.4249 24.2937C15.1852 24.4 12.7731 23.1584 10.9674 20.9709C10.5513 20.4681 10.1732 19.9156 9.84253 19.3282C8.90473 17.6661 8.98857 15.522 10.0715 13.4471L10.0832 13.4215C10.1709 13.1809 10.3207 12.8946 10.504 12.5873C9.76257 14.4535 9.51259 16.4648 10.5831 18.1541C11.7639 20.0173 13.1706 21.4831 14.6526 22.3918C16.0438 23.2453 17.4583 23.5922 18.8611 23.4215ZM21.6093 2.04175C21.3911 3.21814 19.5171 6.66192 15.4771 12.3359C13.8608 14.5854 12.1063 16.5114 10.8649 17.7801C10.5831 17.2936 10.4162 16.7776 10.3417 16.2445C11.7135 14.826 12.9843 13.4114 14.1193 12.0394C19.3331 5.69505 21.0705 3.13045 21.6093 2.04175ZM14.804 21.9751C14.398 21.7198 13.9974 21.4218 13.6061 21.0819L13.6209 21.0656C14.0564 20.5946 14.5331 20.0801 15.0431 19.5346C16.7712 17.6893 18.1849 15.7199 19.2453 13.6791C21.2514 9.77902 22.4585 6.23669 22.6262 3.96307C22.9298 6.11486 22.4259 9.64788 20.5542 14.0547C19.6692 16.118 18.386 18.0797 16.7409 19.8846L16.6625 19.9707C16.0547 20.6388 15.3063 21.4606 14.804 21.9751ZM18.8611 13.4812C17.8185 15.4856 16.4281 17.4232 14.7272 19.2397C14.2171 19.7852 13.7397 20.3013 13.3034 20.7723L13.2847 20.7925C12.9338 20.4642 12.5923 20.1026 12.26 19.7123C12.5177 19.4306 12.7747 19.1544 13.0255 18.8936C14.2482 17.6218 16.0236 15.5903 17.5374 13.1336C19.59 9.76738 21.7319 5.65315 22.2109 3.28021C22.2691 5.14023 21.3298 8.68101 18.8611 13.4812ZM21.8771 2.61054C21.7707 4.14232 20.3733 7.65362 17.1687 12.9085C15.675 15.3319 13.9221 17.3386 12.7134 18.5949C12.4743 18.844 12.2289 19.1078 11.9829 19.3755C11.6785 18.9938 11.3835 18.5871 11.1017 18.1572C12.357 16.8784 14.1651 14.9036 15.8295 12.5873C17.5429 10.1794 21.0713 5.05875 21.8771 2.61054ZM13.7863 11.764C12.7328 13.0373 11.5598 14.3488 10.2975 15.6664C10.2819 14.8733 10.4457 14.0554 10.7182 13.2523C11.3005 12.6556 11.8695 12.0627 12.4106 11.4893C18.6934 4.80191 20.7413 2.44604 21.3694 1.54823C21.1015 2.35603 19.0202 5.39397 13.7863 11.764ZM16.5406 22.7828C16.0888 22.6463 15.637 22.4523 15.1867 22.2016C15.6921 21.6794 16.4009 20.9011 16.9824 20.2625L17.0608 20.1763C18.7384 18.3357 20.0481 16.3337 20.9525 14.2246C22.6977 10.1173 23.2333 6.92653 23.1332 4.75845C23.6207 6.74418 23.8233 10.0103 22.2489 14.6297C21.5208 16.752 20.3454 18.7377 18.7547 20.5302C18.2152 21.1393 17.629 21.743 17.0134 22.325C16.8512 22.4787 16.6951 22.6308 16.5406 22.7828ZM21.2195 1.14472C21.2094 1.12688 21.204 1.10981 21.2009 1.09429L21.2211 1.07566C21.2343 1.08963 21.249 1.1036 21.2638 1.11989L21.2195 1.14472ZM21.131 1.15947C20.7561 1.76085 18.7803 4.07792 12.0954 11.1944C11.7857 11.5226 11.4658 11.8586 11.1398 12.197C11.5217 11.3589 11.9914 10.5604 12.4649 9.85196C12.4743 9.83877 13.4144 8.53668 13.7591 8.07265L21.131 1.15947ZM4.65126 17.088C2.92394 19.9179 2.60254 23.4091 3.89512 26.4998C4.39585 27.6963 5.09609 28.7881 5.97722 29.7441C8.12685 32.0798 11.0373 33.2997 13.9508 33.2997C15.9196 33.2997 17.8907 32.7425 19.6273 31.5972C20.7669 30.8453 21.7637 29.9187 22.5905 28.844C23.4872 27.6777 23.9584 26.5851 23.9864 25.6881C24.1828 26.7171 23.7822 28.0952 22.8366 29.5098C22.0518 30.6831 21.0286 31.7306 19.7958 32.623C15.3436 35.8441 9.1384 35.2101 5.36082 31.1487C4.4269 30.1453 3.69405 28.9953 3.18245 27.732C1.73151 24.1439 2.32229 20.1181 4.65126 17.088ZM17.3247 56.3935C17.5926 55.5873 19.6739 52.5493 24.9079 46.1786C26.7904 43.9018 28.7204 41.9099 30.0075 40.6389C30.6457 40.008 31.2597 39.305 31.8327 38.5484C33.6112 36.1987 34.535 33.6551 34.5048 31.1937C34.4737 28.6585 33.4249 26.3942 31.4717 24.6452C29.6947 23.0537 27.6374 22.0984 25.5569 21.8237C28.1513 21.9657 30.7194 23.0661 32.7231 25.0324C36.4541 28.6927 36.7693 34.2595 33.508 38.8852C32.9738 39.6425 32.3722 40.3448 31.7201 40.9725C30.3887 42.2537 28.364 44.244 26.2819 46.4517C20.0007 53.1399 17.952 55.4949 17.3247 56.3935ZM23.9437 15.2054C23.1798 18.1231 21.5316 20.7156 19.0443 22.9132L18.9721 22.9768C18.9177 22.9823 18.8657 22.9854 18.8091 22.9924C18.2191 23.0638 17.6259 23.035 17.0321 22.9093C17.1252 22.8193 17.2153 22.7301 17.3108 22.6401C17.9349 22.0495 18.5304 21.4365 19.0784 20.8181C20.7072 18.9821 21.9112 16.9475 22.6581 14.7701C24.078 10.6039 24.0772 7.49843 23.7092 5.41415C24.5733 7.74751 25.0639 10.9267 23.9437 15.2054ZM4.42768 32.8449C2.29124 30.569 1.16945 27.597 1.2696 24.4776C1.348 22.0115 2.18566 19.6875 3.65757 17.7662C1.78896 20.7808 1.41865 24.5226 2.78265 27.8927C3.31365 29.2048 4.07523 30.3991 5.04485 31.442C7.28998 33.856 10.3611 35.1046 13.4454 35.1046C15.7535 35.1046 18.0684 34.4054 20.0496 32.9714C21.3243 32.0488 22.3825 30.964 23.1961 29.748C24.0539 28.4661 24.4871 27.2261 24.4739 26.1847C24.6338 27.0484 24.4902 28.1006 24.0345 29.2196C23.2776 30.7133 21.829 32.457 19.8291 34.2852C15.0206 37.7429 8.47698 37.1602 4.42768 32.8449ZM14.7497 42.7371C15.5128 39.8202 17.1617 37.2269 19.649 35.0293C19.802 34.8943 19.9518 34.7593 20.0993 34.625C20.2235 34.535 20.3477 34.4442 20.4696 34.3488C22.2994 32.9249 23.6921 31.182 24.4219 29.4136C24.4226 29.412 24.4242 29.4097 24.425 29.4081C24.432 29.3949 24.4366 29.381 24.4405 29.367C24.4692 29.2964 24.4987 29.2266 24.5251 29.1559C25.0949 27.6374 25.1159 26.2336 24.6035 25.2039C25.4295 25.7393 25.9272 26.4152 26.0832 27.2245C26.4721 29.2343 24.8465 32.0278 21.3833 35.3025C20.7592 35.893 20.1645 36.506 19.6157 37.1245C17.9877 38.9604 16.7829 40.995 16.036 43.1724C14.5936 47.4046 14.6169 50.5434 15.0027 52.6277C14.2086 50.5077 13.5797 47.2083 14.7497 42.7371ZM33.7393 41.6143L17.5631 56.7831C17.9388 56.1817 19.9138 53.8646 26.5987 46.7481C28.6746 44.5467 30.693 42.5617 32.0213 41.2845C32.6936 40.6373 33.3131 39.9141 33.8627 39.135C35.4666 36.8599 36.2825 34.2014 36.1591 31.6492C36.0318 29.0039 34.9488 26.6092 33.0274 24.7243C31.2947 23.0242 29.1621 21.9169 26.8587 21.5219C26.6359 21.4839 26.4131 21.4544 26.1911 21.4303C29.1924 21.5521 32.123 22.8154 34.2664 25.0991C38.6767 29.7969 38.4399 37.2059 33.7393 41.6143Z" fill="white"/>
</svg>
