<svg width="50" height="74" viewBox="0 0 50 74" fill="none" xmlns="http://www.w3.org/2000/svg">
<path d="M44.6992 30.3684C41.2391 26.6884 36.3687 24.8381 31.5147 25.0592C32.1296 23.8229 32.6175 22.5294 32.9701 21.1867C34.2861 16.168 34.1139 11.5096 32.4658 7.3465C31.2851 4.36642 29.0344 1.58283 28.9401 1.46821C28.9155 1.43956 28.895 1.41909 28.8704 1.39453C28.8499 1.36997 28.8335 1.3495 28.813 1.32494C28.8048 1.31675 28.7966 1.30856 28.7884 1.30038C28.7515 1.26353 28.7187 1.23079 28.6818 1.19804C28.6531 1.17348 28.6244 1.14482 28.5957 1.12026C28.5588 1.08751 28.5178 1.05886 28.4809 1.0302C28.4481 1.00564 28.4194 0.981082 28.3866 0.960614C28.3456 0.93196 28.3088 0.907399 28.2678 0.886931C28.2309 0.866463 28.1981 0.841902 28.1612 0.821435C28.1243 0.800967 28.0874 0.784593 28.0505 0.764126C28.0095 0.743658 27.9685 0.72319 27.9275 0.706816C27.8947 0.690442 27.8578 0.678162 27.825 0.665881C27.7799 0.649507 27.7348 0.633133 27.6897 0.616759C27.6569 0.608572 27.6241 0.600385 27.5913 0.588104C27.5421 0.575824 27.4929 0.563543 27.4437 0.551263C27.4109 0.543076 27.3781 0.538982 27.3494 0.534889C27.2961 0.526702 27.2469 0.518514 27.1936 0.510327C27.1608 0.506234 27.1321 0.506234 27.0993 0.50214C27.0461 0.50214 26.9928 0.498047 26.9395 0.498047C26.9108 0.498047 26.878 0.498047 26.8493 0.498047C26.796 0.498047 26.7386 0.50214 26.6853 0.506234C26.6566 0.510327 26.6279 0.514421 26.5992 0.514421C26.5418 0.522608 26.4885 0.526702 26.4311 0.538982C26.4065 0.543076 26.3819 0.551263 26.3573 0.555356C26.2999 0.567637 26.2384 0.579917 26.181 0.596291C26.1605 0.600385 26.14 0.608572 26.1195 0.616759C26.058 0.637226 25.9965 0.657694 25.935 0.678162C25.9186 0.686349 25.9023 0.694536 25.8859 0.698629C25.8203 0.727284 25.7588 0.755939 25.6973 0.784593C25.685 0.79278 25.6686 0.800967 25.6563 0.805061C25.5907 0.837809 25.5292 0.874651 25.4677 0.915586C25.4554 0.923773 25.4431 0.93196 25.4308 0.940147C25.3693 0.981082 25.3119 1.02202 25.2504 1.07114C25.2463 1.07523 25.2422 1.07523 25.2381 1.07933C25.2258 1.08751 25.2176 1.0957 25.2094 1.10798C25.1725 1.14073 25.1315 1.16938 25.0946 1.20623L16.3336 9.41373C16.268 9.47513 16.1983 9.54472 16.1286 9.62659C16.1122 9.63887 16.0958 9.65525 16.0753 9.67162C16.0303 9.70846 15.9893 9.74121 15.9483 9.78215C15.9401 9.78624 15.936 9.79443 15.9278 9.79852L5.35472 19.7048C2.05039 22.7995 0.152247 26.9913 0.00875872 31.5105C-0.13473 36.0298 1.48874 40.3321 4.58809 43.6314C7.29386 46.5092 10.9139 48.3922 14.7881 48.9244C15.5424 49.0267 16.2967 49.0799 17.047 49.0799C17.2684 49.0799 17.4897 49.0635 17.707 49.0554C17.1577 50.1893 16.678 51.4378 16.3172 52.8132C13.8861 62.0973 17.2069 67.8282 18.2974 69.7113C19.2772 71.406 19.7282 71.9136 20.3513 72.5522L20.4456 72.6504C20.462 72.6668 20.4784 72.679 20.4948 72.6954C21.0113 73.2276 21.696 73.5018 22.3888 73.5018C23.0325 73.5018 23.6802 73.2644 24.1886 72.7896L43.9285 54.2991C50.7503 47.9051 51.0906 37.1719 44.6992 30.3684ZM18.3179 15.3657C18.4983 15.116 19.8552 13.3189 21.0523 12.1973L26.4721 7.12136C26.878 7.7886 27.2756 8.53772 27.5708 9.28274C28.8171 12.4307 28.9196 15.8897 27.8783 19.8604C27.1444 22.6563 25.6071 25.1779 23.3154 27.3761C22.2166 27.2369 21.1466 26.9381 20.2898 26.5205C18.6007 25.6936 17.5307 24.572 16.7108 22.775C15.4686 20.0405 17.5922 16.4587 18.3179 15.3657ZM8.42537 40.0332C6.28945 37.7572 5.16614 34.7894 5.26453 31.6743C5.36292 28.5591 6.67482 25.665 8.95013 23.5323L11.0861 21.5305C11.1517 22.6563 11.4058 23.8106 11.9265 24.9527C13.2589 27.8632 15.1775 29.8568 17.9694 31.2281C19.5806 32.0181 21.5402 32.5216 23.5162 32.6649C23.6925 32.7099 23.8729 32.7386 24.0615 32.7468C24.7174 32.7754 26.6976 32.9556 27.9644 33.4222C28.235 33.5205 28.3333 33.6474 28.4071 33.8234C28.6039 34.2941 28.5957 35.3503 27.9316 36.7666C27.7184 37.2251 27.4437 37.6836 27.1362 38.1379C26.5008 38.9444 26.0211 39.4929 25.5907 39.9309C24.9306 40.5859 23.9385 41.3882 22.9341 42.0595C18.5269 45.0151 12.2914 44.1431 8.42537 40.0332ZM40.3331 50.4635L22.7619 66.9236C21.3516 64.447 19.7486 60.4558 21.4049 54.1395C22.3929 50.3653 24.5781 47.8232 26.2302 46.3618C26.6812 45.9607 27.0584 45.6495 27.4191 45.3466C27.4273 45.3384 27.4355 45.3343 27.4437 45.3303C29.0057 44.1186 30.3258 42.735 31.3589 41.2654C31.363 41.2613 31.363 41.2572 31.3671 41.2531C31.4368 41.1671 31.4942 41.0771 31.5516 40.987C31.9862 40.3362 32.3756 39.673 32.6913 38.9935C33.9007 36.4064 34.1057 33.8602 33.2652 31.8257C33.0316 31.2608 32.72 30.7491 32.3387 30.2948C35.4914 30.307 38.6071 31.576 40.8578 33.9667C45.2732 38.6537 45.0354 46.0589 40.3331 50.4635Z" fill="white"/>
</svg>
