<svg width="25" height="30" viewBox="0 0 25 30" fill="none" xmlns="http://www.w3.org/2000/svg">
<path d="M15.001 29.4876H14.9444C12.323 29.4707 9.92241 28.9219 7.7398 27.8471C5.56003 26.7723 3.79922 25.1686 2.46022 23.0359C1.12122 20.9033 0.453125 18.2473 0.453125 15.0681C0.453125 11.6627 1.14952 8.89079 2.54514 6.74964C3.94076 4.6085 5.73271 3.05001 7.92381 2.07702C9.94505 1.1606 12.088 0.702393 14.3556 0.702393H23.9041L24.7732 10.8877H23.8475C23.6805 10.6246 23.4738 10.2428 23.2304 9.73649C22.7265 8.76633 22.1037 7.66606 21.3648 6.43851C20.6259 5.21379 19.8248 4.23514 18.9642 3.50822C17.8234 2.70211 16.4363 2.30047 14.8085 2.30047H14.415C11.9069 2.30047 10.1092 3.76844 9.02219 6.70438C8.27201 8.68714 7.89833 10.9046 7.89833 13.3541C7.89833 13.9905 7.92664 14.6354 7.98326 15.2916C8.56359 20.7166 10.8934 24.0287 14.9755 25.2251C15.5757 25.3581 16.2579 25.4231 17.0251 25.4231C17.7922 25.4231 18.8793 25.3157 20.2834 25.1007C21.6875 24.8857 23.1568 23.9552 24.6939 22.309L24.5807 22.8408C23.6437 24.9904 22.4236 26.6365 20.9147 27.7792C19.4058 28.9163 17.4356 29.4876 15.001 29.4876Z" fill="white"/>
</svg>
