<svg width="29" height="30" viewBox="0 0 29 30" fill="none" xmlns="http://www.w3.org/2000/svg">
<path d="M8.64544 29.6007H6.76574C5.54847 29.6007 4.3227 28.9473 3.08561 27.6349C2.03535 26.6421 1.33329 25.2873 0.979434 23.5676C0.886016 23.1377 0.837891 22.7077 0.837891 22.2778C0.837891 21.005 1.30498 19.6077 2.242 18.0832C3.17902 16.5587 5.26538 15.2462 8.5039 14.1403C8.93419 14.0102 9.45791 13.8688 10.0779 13.7189C13.3362 13.0287 15.6094 11.9879 16.9003 10.6047C16.7502 8.7719 16.4049 7.09745 15.8613 5.58139C15.2046 3.82492 14.1204 2.81233 12.603 2.55211C12.2463 2.51534 11.8443 2.49554 11.3942 2.49554C10.1571 2.49554 8.97949 2.89718 7.85563 3.70329C6.52512 4.82619 5.10402 6.90229 3.58667 9.93157L2.96954 11.0828H2.04384L2.88744 0.897461H11.9576C12.2378 0.897461 12.7162 0.91726 13.39 0.95403C16.4983 1.23405 19.1338 2.68788 21.2966 5.31552C23.4594 7.94599 24.5408 11.2694 24.5408 15.2915L24.5691 28.0026H28.6144V29.5752H19.5443C18.8507 29.5752 18.2619 29.332 17.775 28.8455C17.2881 28.359 17.0446 27.7707 17.0446 27.0777V25.4796C13.8769 28.2232 11.0772 29.6007 8.64544 29.6007ZM11.9576 25.6154C12.6115 25.6154 13.3136 25.4938 14.0637 25.2505C15.2046 24.764 16.2152 23.9777 17.0956 22.8944V15.2887C17.0956 14.5589 17.0758 13.7358 17.039 12.8194L15.1565 13.8858C13.6221 14.689 12.1614 15.5687 10.7743 16.5219C9.38996 17.4779 8.45295 18.5527 7.96603 19.7492C7.816 20.2724 7.73956 20.7787 7.73956 21.2624C7.73956 22.4221 8.16986 23.4601 9.03044 24.3765C9.82309 25.2053 10.7969 25.6154 11.9576 25.6154Z" fill="white"/>
</svg>
