<svg width="26" height="30" viewBox="0 0 26 30" fill="none" xmlns="http://www.w3.org/2000/svg">
<path d="M14.9659 29.6008H14.9093C12.3077 29.581 9.91841 29.0351 7.74713 27.9603C5.57584 26.8855 3.82071 25.2846 2.4817 23.1632C1.1427 21.039 0.474609 18.3973 0.474609 15.235C0.474609 11.8324 1.1427 9.07748 2.4817 6.97027C3.82071 4.8659 5.57584 3.32156 7.74713 2.34008C9.91841 1.35861 12.3162 0.866455 14.9376 0.866455H15.1329C19.8888 1.03616 23.0339 3.79391 24.5682 9.14253C25.2221 11.4986 25.5505 13.8859 25.5505 16.2985L18.7819 16.3268C14.963 16.3636 11.3678 16.3806 7.99908 16.3806C8.31897 18.4962 9.09463 20.3941 10.3317 22.0771C12.0161 24.3766 14.2355 25.5278 16.9871 25.5278C17.7543 25.5278 18.8414 25.4203 20.2455 25.2054C21.6496 24.9904 23.1188 24.0598 24.656 22.4137L24.5144 22.9454C23.5972 25.095 22.3856 26.7412 20.8767 27.8839C19.3707 29.0294 17.4004 29.6008 14.9659 29.6008ZM12.2426 14.7005L18.5611 14.6439V13.8321C18.5611 12.729 18.5186 11.377 18.4337 9.7761C18.3488 8.1752 18.0912 6.65631 17.6609 5.21663C17.1004 3.45733 16.0501 2.57767 14.5158 2.57767C12.5483 2.57767 10.8837 3.8024 9.51643 6.25467C8.35577 8.33076 7.77544 10.8 7.77544 13.6624L7.80375 14.6439C9.11445 14.6807 10.595 14.7005 12.2426 14.7005Z" fill="white"/>
</svg>
