<svg width="30" height="43" viewBox="0 0 30 43" fill="none" xmlns="http://www.w3.org/2000/svg">
<path d="M30 42.5159H13.1507C9.25821 42.4225 6.14424 41.0507 3.81443 38.4061C1.48462 35.7587 0.261673 32.3872 0.148438 28.2915V28.0681C0.261673 23.9329 1.50443 20.5387 3.88237 17.8828C6.2603 15.2269 9.4224 13.8805 13.3743 13.8438C15.5088 13.8636 17.1847 14.1634 18.4019 14.7404L18.3736 2.22727H14.3311V0.623535H23.4013C24.092 0.623535 24.6893 0.866783 25.1847 1.35328C25.6801 1.83977 25.9293 2.43941 25.9293 3.14935V40.9178H30V42.5159ZM13.7395 39.5686C16.2307 39.5686 17.7848 38.5391 18.4019 36.4828V19.8712C17.7848 17.8121 16.3892 16.7854 14.2179 16.7854C13.6376 16.7854 13.0289 16.8985 12.392 17.1219C10.6142 17.962 9.31765 19.5799 8.50235 21.9756C7.68706 24.3685 7.27942 26.4361 7.27942 28.1756C7.27942 31.9742 7.70405 34.8225 8.55614 36.7204C9.41107 38.6211 11.1379 39.5686 13.7395 39.5686Z" fill="white"/>
</svg>
