<svg width="124" height="188" viewBox="0 0 124 188" fill="none" xmlns="http://www.w3.org/2000/svg">
<path d="M113.028 80.2059C100.887 67.4238 81.4789 63.9482 65.5856 71.6218H65.5509C72.1082 64.9272 76.562 57.275 78.804 48.8106C84.2273 28.3378 78.6396 15.2521 73.9651 7.18956C70.7665 1.67058 68.7885 0.195719 68.7062 0.135869C68.4206 -0.073604 68.0354 -0.0394043 67.7843 0.191444L67.78 0.187169L38.218 27.5854L12.8199 51.1233C4.91217 58.4506 0.367509 68.3814 0.0212487 79.0859C-0.325011 89.7904 3.57041 99.9862 10.989 107.801C18.94 116.171 29.6481 120.45 40.4817 120.45C46.6451 120.45 52.8475 119.057 58.5998 116.244C51.9689 122.973 47.4718 130.672 45.2125 139.192C39.088 162.315 47.342 176.243 50.0558 180.817C52.7437 185.349 54.7087 187.315 55.2497 187.811C55.3882 187.939 55.5657 188.003 55.7431 188.003C55.9206 188.003 56.098 187.935 56.2365 187.807L56.2409 187.811L111.201 136.883C127.523 121.754 128.345 96.3268 113.028 80.2059ZM55.7561 186.289C55.7128 186.242 55.6695 186.199 55.6219 186.144L55.7388 186.08C55.7734 186.139 55.7907 186.195 55.8037 186.246L55.7561 186.289ZM85.9933 87.9479C85.1666 83.7285 81.968 80.5052 76.4798 78.3677C75.3501 77.9274 74.4325 77.5854 73.6361 77.3075C73.3894 77.0724 73.0864 76.8629 72.7402 76.6748C75.0688 77.1579 77.735 78.1967 81.0634 79.9024C86.1274 82.5016 89.0403 85.9899 89.7199 90.2734C90.8452 97.3528 85.963 106.57 75.5968 116.924C73.6275 118.894 71.6321 120.972 69.6671 123.101C64.049 129.193 59.6645 135.819 56.6348 142.796C50.7916 156.386 48.9954 166.945 49.333 174.123C47.7012 167.552 47.0217 156.741 52.2935 141.458C54.7303 134.434 58.669 127.863 63.9971 121.93C65.8063 119.912 67.767 117.915 69.8273 115.992C81.8035 104.8 87.3913 95.0999 85.9933 87.9479ZM54.4317 183.113C55.1631 179.223 61.4391 167.826 74.9692 149.05C80.6219 141.274 86.7897 134.656 90.9664 130.475C93.018 128.419 95.0004 126.222 97.0216 123.755C103.51 115.846 107.055 107.583 107.267 99.8579C107.487 91.8252 104.077 84.7587 97.3982 79.4236C91.8277 74.9734 85.8677 72.3186 79.9683 71.5448C87.5384 71.8826 95.1648 75.0161 101.644 80.7531C114.235 91.8979 114.638 109.199 102.661 124.832C100.787 127.282 98.7746 129.556 96.6884 131.595C92.3558 135.823 85.8548 142.454 79.5095 150.033C62.058 171.023 56.2365 179.509 54.4317 183.113ZM91.1482 90.0554C90.3908 85.2974 87.2225 81.4542 81.7256 78.637C78.1072 76.7817 75.2895 75.6958 72.7661 75.217C76.8001 75.4351 81.2279 77.051 86.1924 80.1161C91.343 83.2924 94.2905 87.3878 94.9571 92.2869C95.9742 99.8194 91.62 109.023 82.3619 118.903L81.1976 120.143C79.7346 121.703 78.1332 123.413 76.4192 125.226C70.6323 131.33 65.8972 137.85 62.348 144.604C55.6306 157.51 51.588 169.228 51.0253 176.756C50.0082 169.638 51.6962 157.946 57.9635 143.364C60.9284 136.537 65.2263 130.043 70.7362 124.071C72.6882 121.955 74.6662 119.89 76.6269 117.937C87.3264 107.241 92.3515 97.6007 91.1482 90.0554ZM73.0648 79.1072C73.2769 80.1503 72.5367 82.2878 67.806 86.5414C64.9969 89.0679 62.3437 90.9019 59.4524 92.3083C48.1211 97.8102 33.7686 94.5441 24.5538 84.3612C22.2987 81.8774 20.4419 79.0645 19.0352 76.0079C14.9148 67.0732 16.3474 56.2234 22.6277 47.9556C18.3124 55.6206 17.806 64.5253 21.4461 71.9937C22.8138 74.7938 24.5451 77.3844 26.5924 79.6886C32.8294 86.7209 41.4253 90.6197 49.7788 90.6154C52.8042 90.6154 55.7994 90.1024 58.6387 89.0423C61.2963 88.0462 63.7893 86.6782 66.7152 84.6091C70.6323 81.8389 72.4805 80.2016 73.0128 78.932C73.0345 78.9918 73.0561 79.0474 73.0648 79.1072ZM74.4628 80.1974C74.9779 82.3861 73.3418 85.7163 69.7623 89.6236C67.0139 92.6247 64.0837 95.0058 60.7985 96.8996C48.3029 104.103 31.743 101.192 21.4288 89.9699C18.8838 87.204 16.8278 84.0662 15.3216 80.6377C10.9414 70.6941 12.5818 59.0149 19.4075 50.1828C14.6118 58.3694 13.8803 68.2702 17.7238 76.6021C19.1954 79.7912 21.1301 82.7239 23.4804 85.3145C29.9814 92.5007 38.9409 96.3866 47.7402 96.3866C51.9949 96.3866 56.2149 95.4761 60.0974 93.5908C63.1141 92.1202 65.8756 90.2179 68.7885 87.5973C72.2208 84.5022 74.0689 82.1083 74.4628 80.1974ZM70.6453 76.3841L70.628 76.4311L70.5977 76.3798C70.615 76.3841 70.6323 76.3841 70.6453 76.3841ZM71.6408 77.9658C71.6971 78.0257 71.7317 78.077 71.736 78.1197C71.8356 78.8336 69.8662 80.6291 65.8756 83.4506C63.0535 85.4427 60.6644 86.7594 58.128 87.7085C48.0259 91.4833 35.7899 87.8795 27.6831 78.7481C25.7181 76.5423 24.0603 74.0585 22.7532 71.3738C18.8145 63.2984 20.0307 53.4233 25.9128 45.5531C22.0477 52.8034 21.7361 60.8019 25.177 67.3896C26.4366 69.8007 27.9601 72.045 29.7087 74.0628C35.7553 81.0566 44.1218 85.0708 52.0858 85.0708C53.8041 85.0708 55.5008 84.8827 57.1541 84.5022C59.5303 83.9465 61.833 83.0616 64.6204 81.6295C66.2132 80.813 67.503 80.1845 68.5418 79.6801C70.2817 78.8422 71.208 78.3933 71.6408 77.9658ZM69.9268 77.393C69.4247 77.6623 68.7019 78.0128 67.9142 78.3976C66.8711 78.9063 65.5683 79.5347 63.9625 80.3598C61.2833 81.7363 59.0845 82.5828 56.8338 83.1086C48.0302 85.1478 37.8242 81.2319 30.8211 73.1308C29.146 71.1986 27.6831 69.044 26.4755 66.7312C22.9047 59.8956 23.6578 51.4055 28.4925 44.0184L28.5661 43.873C28.7522 43.3686 29.159 42.676 29.7001 41.8766C29.6827 41.9193 29.6654 41.9621 29.6481 42.0048C25.809 49.2979 25.5449 56.8732 28.9253 62.7897C30.0766 64.8075 31.3924 66.7056 32.838 68.4327C38.9192 75.7129 47.0174 79.9708 54.6827 79.9665C55.003 79.9665 55.3276 79.958 55.6479 79.9451C57.8337 79.8383 60.0844 79.4108 62.5212 78.637C67.1005 77.1835 69.3641 77.3246 69.9268 77.393ZM13.9928 81.2105C15.564 84.7844 17.7065 88.0547 20.3597 90.9361C27.1594 98.3317 36.5603 102.265 45.8661 102.265C51.3023 102.265 56.7083 100.922 61.5343 98.1394C64.9493 96.1686 67.9921 93.6977 70.8401 90.5855C73.9954 87.1399 75.7267 84.079 75.9777 81.6166C76.5404 84.4381 75.0601 88.4224 71.7274 92.7059C69.0568 96.1344 65.8366 99.0927 62.1533 101.495C48.3245 110.507 29.8818 108.023 18.3038 95.5915C15.4688 92.5477 13.2138 89.0765 11.6036 85.2717C6.97675 74.3449 8.79894 61.8278 16.1353 52.4058C10.8159 61.1738 9.89831 71.9125 13.9928 81.2105ZM63.6379 145.258C67.1264 138.623 71.7879 132.215 77.4839 126.2C79.1979 124.388 80.8037 122.678 82.2666 121.113L83.4309 119.873C92.992 109.669 97.4761 100.067 96.3984 92.0946C95.6756 86.7551 92.5029 82.3135 86.9671 78.8978C82.6345 76.2259 78.6655 74.6057 74.9779 74.0115C80.2237 74.2423 85.7682 76.3584 91.343 80.3213C96.6191 84.0705 99.6273 88.7943 100.289 94.3603C101.233 102.312 97.3766 111.477 89.1356 120.874C87.0277 123.276 85.08 125.392 83.1842 127.346C79.0897 131.552 73.1427 138.277 68.0743 146.408C61.2011 157.549 54.0291 171.164 52.4234 179.013C52.2243 172.857 55.3666 161.139 63.6379 145.258ZM53.5357 181.232C53.895 176.166 58.5695 164.542 69.3035 147.156C74.307 139.136 80.1804 132.497 84.223 128.338C86.1361 126.367 88.1011 124.234 90.222 121.814C98.7356 112.11 102.713 102.56 101.722 94.1979C101.012 88.2129 97.8051 83.1556 92.1827 79.1628C87.0364 75.5077 81.8987 73.3617 76.9559 72.7504C83.4959 72.9085 90.2436 75.5462 96.4893 80.5394C102.8 85.5838 106.029 92.2527 105.817 99.8194C105.613 107.224 102.181 115.188 95.892 122.853C93.901 125.281 91.9489 127.449 89.9276 129.471C85.7119 133.69 79.4922 140.363 73.7833 148.216C68.0483 156.185 56.2365 173.126 53.5357 181.232ZM60.383 75.636C63.5816 75.2512 65.7327 75.6317 67.0788 76.0891C65.815 76.2644 64.1616 76.6149 62.071 77.2776C59.7554 78.0129 57.6302 78.419 55.5743 78.5216C48.0735 78.8721 39.997 74.7639 33.9504 67.5264C32.5567 65.8634 31.2885 64.0337 30.1805 62.0929C27.0382 56.591 27.3195 49.4989 30.9466 42.629L30.9855 42.5435C31.2799 41.7483 31.7819 40.7993 32.3965 39.7819C29.9165 45.9592 29.0768 52.6153 32.6606 58.2027C36.6123 64.3672 41.3257 69.2193 46.2902 72.2245C50.9474 75.0546 55.6869 76.2003 60.383 75.636ZM69.5849 4.88535C68.8534 8.77557 62.5774 20.1726 49.0473 38.9482C43.637 46.391 37.7593 52.7649 33.6041 56.9629C32.6606 55.3513 32.1022 53.6456 31.8512 51.88C36.4478 47.1861 40.7025 42.505 44.5027 37.965C61.9628 16.9749 67.78 8.48915 69.5849 4.88535ZM46.7923 70.848C45.4332 70.0058 44.0915 69.0183 42.78 67.894L42.8276 67.8427C44.2863 66.2866 45.8834 64.5809 47.5887 62.7769C53.3756 56.6722 58.1107 50.1529 61.6642 43.3985C68.3816 30.4924 72.4242 18.7704 72.9869 11.2465C74.004 18.3686 72.316 30.0563 66.0487 44.6425C63.0838 51.4696 58.7859 57.959 53.276 63.9354L53.012 64.2218C50.9821 66.4277 48.476 69.1466 46.7923 70.848ZM60.383 42.7401C56.8901 49.3749 52.2329 55.783 46.5369 61.7979C44.8273 63.602 43.2302 65.3119 41.7715 66.868L41.7109 66.9364C40.538 65.8506 39.391 64.6536 38.2786 63.3626C39.14 62.4306 40.0013 61.5158 40.841 60.6522C44.9355 56.4457 50.8825 49.7212 55.9509 41.5902C62.8241 30.4496 69.996 16.8381 71.6018 8.98504C71.7923 15.141 68.65 26.8587 60.383 42.7401ZM70.4808 6.76634C70.1259 11.8322 65.4471 23.4558 54.713 40.8421C49.7139 48.8619 43.8404 55.5009 39.7935 59.6604C38.9928 60.4855 38.1704 61.3576 37.3481 62.2425C36.3266 60.9814 35.3398 59.6348 34.3962 58.2112C38.6033 53.979 44.6542 47.4469 50.2289 39.7776C55.9682 31.8176 67.7843 14.8717 70.4808 6.76634ZM43.386 37.0587C39.8585 41.2738 35.9284 45.6129 31.704 49.9734C31.6521 47.3485 32.2018 44.6425 33.115 41.9877C35.0671 40.0127 36.9715 38.0505 38.7807 36.1524C59.8203 14.0209 66.6806 6.22769 68.7841 3.25659C67.8839 5.92417 60.9154 15.9789 43.386 37.0587ZM52.6095 73.5241C51.0946 73.071 49.584 72.4298 48.0735 71.6004C49.7658 69.8733 52.142 67.2955 54.0854 65.1837L54.3494 64.8973C59.9675 58.8054 64.352 52.1793 67.3818 45.2025C73.2249 31.6124 75.0212 21.0533 74.6835 13.8756C76.3153 20.4462 76.9948 31.2533 71.723 46.5406C69.2862 53.5643 65.3475 60.135 60.0194 66.0686C58.2102 68.0864 56.2495 70.0828 54.1893 72.0065C53.6526 72.5153 53.1289 73.0197 52.6095 73.5241ZM68.2777 1.91853C68.2431 1.85868 68.2258 1.8031 68.2128 1.7518L68.2777 1.69196C68.321 1.73898 68.3686 1.786 68.4206 1.8373L68.2777 1.91853ZM67.9834 1.96555C66.7282 3.95768 60.1103 11.6227 37.7246 35.1735C36.6858 36.2593 35.6168 37.3708 34.526 38.4908C35.8029 35.7207 37.3784 33.0745 38.9625 30.7318C38.9928 30.689 42.1438 26.3799 43.2951 24.8409L67.9834 1.96555ZM12.7939 54.6758C7.00704 64.038 5.93364 75.5932 10.2619 85.8189C11.9369 89.7775 14.2828 93.3899 17.2347 96.5534C24.4326 104.282 34.1798 108.318 43.94 108.318C50.5319 108.318 57.1325 106.476 62.9497 102.684C66.7672 100.196 70.1043 97.1305 72.8743 93.5737C75.8781 89.7134 77.458 86.1011 77.5489 83.13C78.2067 86.5329 76.865 91.0942 73.6967 95.7753C71.0695 99.657 67.6415 103.124 63.5123 106.078C48.6015 116.735 27.8216 114.641 15.1701 101.2C12.0408 97.8786 9.58668 94.0739 7.87702 89.893C3.0164 78.0257 4.99874 64.7049 12.7939 54.6758ZM55.2367 184.742C56.1327 182.074 63.1012 172.019 80.6306 150.939C86.9368 143.407 93.3989 136.815 97.7098 132.608C99.848 130.522 101.904 128.197 103.821 125.691C109.777 117.915 112.872 109.502 112.772 101.354C112.668 92.9667 109.154 85.4727 102.618 79.6844C96.6667 74.4176 89.7762 71.2584 82.812 70.3478C91.5031 70.8181 100.099 74.4604 106.812 80.9669C119.308 93.0778 120.364 111.499 109.439 126.807C107.652 129.312 105.635 131.638 103.453 133.716C98.9953 137.952 92.213 144.54 85.2445 151.846C64.1962 173.977 57.3403 181.77 55.2367 184.742ZM77.4017 48.4472C74.8437 58.1001 69.3252 66.6799 60.9933 73.9516L60.7509 74.1611C60.5691 74.1782 60.396 74.191 60.2056 74.2124C58.2319 74.4475 56.2452 74.3535 54.2542 73.9388C54.5658 73.6438 54.8688 73.3446 55.1891 73.0496C57.2797 71.096 59.2707 69.0654 61.1102 67.0176C66.5638 60.9429 70.5977 54.2099 73.0994 47.0065C77.8562 33.2198 77.8518 22.9428 76.6183 16.0473C79.5095 23.7679 81.1543 34.2885 77.4017 48.4472ZM12.0451 106.818C4.89053 99.2851 1.13361 89.4527 1.47121 79.1286C1.73524 70.9677 4.53994 63.2771 9.46549 56.9202C3.20684 66.8937 1.96896 79.2782 6.53526 90.4316C8.31417 94.775 10.8635 98.725 14.114 102.175C21.6322 110.165 31.9204 114.294 42.2476 114.294C49.9779 114.294 57.7298 111.982 64.365 107.236C68.6327 104.184 72.1775 100.593 74.9043 96.5705C77.7739 92.3297 79.2282 88.2257 79.1849 84.7801C79.7216 87.6358 79.2412 91.1199 77.7133 94.822C75.177 99.7681 70.325 105.535 63.6292 111.584C47.5195 123.024 25.6055 121.096 12.0451 106.818ZM46.6148 139.551C49.1728 129.898 54.6914 121.318 63.0232 114.047C63.534 113.598 64.0361 113.153 64.5295 112.708C64.945 112.413 65.3605 112.11 65.7717 111.794C71.9005 107.083 76.562 101.311 79.0075 95.4632C79.0118 95.459 79.0161 95.4504 79.0161 95.4461C79.0378 95.4034 79.0551 95.3564 79.0681 95.3093C79.1633 95.0785 79.2628 94.8434 79.3494 94.6125C81.2582 89.5852 81.3274 84.9426 79.6091 81.5354C82.3748 83.3053 84.0412 85.5453 84.5649 88.2215C85.8677 94.8733 80.4228 104.116 68.8231 114.953C66.7326 116.906 64.7416 118.933 62.9021 120.985C57.4485 127.059 53.4145 133.793 50.9128 140.996C46.0825 155.001 46.1604 165.389 47.4502 172.284C44.8013 165.265 42.6935 154.347 46.6148 139.551ZM110.205 135.836L56.0331 186.033C57.2883 184.04 63.9062 176.375 86.2919 152.825C93.2431 145.54 100.004 138.97 104.453 134.742C106.704 132.6 108.781 130.206 110.621 127.628C115.992 120.1 118.723 111.302 118.312 102.859C117.884 94.1038 114.257 86.1823 107.825 79.9451C102.021 74.3193 94.8792 70.6556 87.1662 69.3475C86.4218 69.2193 85.673 69.1252 84.9285 69.044C94.9787 69.4458 104.791 73.6267 111.971 81.1849C126.739 96.7329 125.947 121.25 110.205 135.836Z" fill="url(#paint0_linear)"/>
<defs>
<linearGradient id="paint0_linear" x1="26.7661" y1="190.179" x2="93.7625" y2="2.68973" gradientUnits="userSpaceOnUse">
<stop offset="0.0223" stop-color="#EF646D"/>
<stop offset="0.5" stop-color="#92278F"/>
<stop offset="1" stop-color="#2484C6"/>
</linearGradient>
</defs>
</svg>
