<svg width="23" height="30" viewBox="0 0 23 30" fill="none" xmlns="http://www.w3.org/2000/svg">
<path d="M11.3217 29.5725H0.872985L0.00390625 19.3873H0.957911L1.60335 20.6487C3.04427 23.7544 4.44838 25.7937 5.8157 26.7667C6.86312 27.3833 8.34367 27.768 10.2517 27.9179C13.2666 27.768 14.7726 26.6083 14.7726 24.4389C14.7726 22.9426 14.0705 21.6981 12.6664 20.7081C11.5794 19.9614 10.2404 19.1949 8.6494 18.4086C6.90841 17.5488 5.07401 16.4824 3.14618 15.2096C2.65927 14.9664 2.01383 14.3639 1.20703 13.3994C0.405891 12.4321 0.00390625 11.0716 0.00390625 9.31227C0.00390625 6.80626 0.972066 4.79522 2.91122 3.27917C4.85037 1.76311 7.38966 0.971144 10.5348 0.894775H20.4485L21.3176 11.0801H20.3636L19.7464 9.92888C18.2291 6.8996 16.808 4.82068 15.4775 3.70061C14.3904 2.89733 13.0429 2.49286 11.435 2.49286C9.99124 2.54943 8.87021 3.01612 8.06624 3.89577C7.5029 4.51238 7.22264 5.2704 7.22264 6.16703C7.22264 6.54038 7.27926 6.95334 7.39249 7.40306C7.76617 8.65607 8.47389 9.63472 9.51282 10.3362C10.5518 11.0376 11.8002 11.6967 13.2609 12.3133C15.0019 13.026 16.8731 14.0245 18.8774 15.3143C20.975 16.457 22.0225 18.4284 22.0225 21.2371C22.0225 23.7799 21.0401 25.7965 19.0727 27.2843C17.1052 28.7721 14.5235 29.5329 11.3217 29.5725Z" fill="white"/>
</svg>
